#N canvas 510 50 1261 653 10;
#X declare -path seq3;
#X obj 149 258 pack f f f;
#X obj 149 283 route 1 2 3 4;
#X obj 149 228 poly 4 1;
#X obj 495 326 send~ f;
#X obj 495 217 sig~;
#X obj 113 76 r notes;
#X obj 494 248 lop~ 5;
#X obj 149 176 unpack 0 0;
#X obj 169 477 throw~ outL;
#X obj 189 456 throw~ outR;
#X obj 149 201 - 24;
#X obj 673 140 sig~;
#X obj 672 169 lop~ 5;
#X obj 672 195 send~ offset;
#X obj 673 117 * 2;
#X obj 835 141 sig~;
#X obj 835 169 lop~ 5;
#X obj 835 196 send~ resonance;
#X obj 835 118 * 4;
#X obj 1020 174 sig~;
#X obj 1019 207 lop~ 5;
#X obj 1019 232 s~ cutoff;
#X obj 1015 143 + 100;
#X obj 548 231 r fs;
#X obj 548 253 + 1;
#X floatatom 548 276 5 0 0 0 - - -, f 5;
#X obj 495 300 *~ 1;
#X obj 646 272 i;
#X obj 646 245 * 100;
#X obj 406 312 i;
#X obj 812 266 i;
#X obj 812 241 * 100;
#X obj 975 267 i;
#X obj 975 291 change -1;
#X obj 812 289 change -1;
#X obj 406 334 change -1;
#X obj 646 295 change -1;
#X text 64 28 notes from keyboard and sequencer;
#X obj 495 146 / 100;
#X obj 495 168 mtof;
#X obj 495 190 / 8.1785;
#X obj 495 58 r knob1;
#X msg 406 360 1: Tune \$1 cents;
#X obj 407 385 s screenLine1;
#X obj 673 42 r knob2;
#X msg 646 321 2: Osc Ratio \$1 %;
#X obj 646 346 s screenLine2;
#X obj 835 46 r knob3;
#X msg 812 315 3: Resonance \$1 %;
#X obj 812 341 s screenLine3;
#X msg 975 315 4: Cutoff \$1 Hz;
#X obj 975 339 s screenLine4;
#X obj 1015 42 r knob4;
#X obj 209 74 r aux;
#X obj 481 473 loadbang;
#X obj 189 412 *~ 1;
#X obj 495 118 * 2400;
#X obj 1015 118 * 4000;
#X obj 481 522 cg-metro 1;
#X obj 243 572 s midiInGate;
#X obj 243 523 loadbang;
#X msg 243 545 0;
#X obj 1024 81 r seq3-1-k4;
#X obj 854 76 r seq3-1-k3;
#X obj 693 73 r seq3-1-k2;
#X obj 517 85 r seq3-1-k1;
#X obj 68 517 declare -path seq3;
#X obj 149 115 cg-seq3 1 1;
#X msg 481 496 120;
#X obj 269 365 simple;
#X obj 206 336 simple;
#X obj 157 318 simple;
#X obj 149 382 simple;
#X obj 481 569 cg-print-line5;
#X obj 574 539 r seq3-1-actions;
#X obj 285 182 noteout 1;
#X obj 346 152 r midiCh;
#X obj 237 147 unpack 0 0;
#X obj 163 136 t a a;
#X connect 0 0 1 0;
#X connect 1 0 72 0;
#X connect 1 1 71 0;
#X connect 1 2 70 0;
#X connect 1 3 69 0;
#X connect 2 0 0 0;
#X connect 2 1 0 1;
#X connect 2 2 0 2;
#X connect 4 0 6 0;
#X connect 5 0 67 0;
#X connect 6 0 26 0;
#X connect 7 0 10 0;
#X connect 7 1 2 1;
#X connect 10 0 2 0;
#X connect 11 0 12 0;
#X connect 12 0 13 0;
#X connect 14 0 11 0;
#X connect 14 0 28 0;
#X connect 15 0 16 0;
#X connect 16 0 17 0;
#X connect 18 0 15 0;
#X connect 19 0 20 0;
#X connect 20 0 21 0;
#X connect 22 0 19 0;
#X connect 22 0 32 0;
#X connect 23 0 24 0;
#X connect 24 0 25 0;
#X connect 25 0 26 1;
#X connect 26 0 3 0;
#X connect 27 0 36 0;
#X connect 28 0 27 0;
#X connect 29 0 35 0;
#X connect 30 0 34 0;
#X connect 31 0 30 0;
#X connect 32 0 33 0;
#X connect 33 0 50 0;
#X connect 34 0 48 0;
#X connect 35 0 42 0;
#X connect 36 0 45 0;
#X connect 38 0 39 0;
#X connect 39 0 40 0;
#X connect 40 0 4 0;
#X connect 41 0 56 0;
#X connect 42 0 43 0;
#X connect 44 0 14 0;
#X connect 45 0 46 0;
#X connect 47 0 18 0;
#X connect 47 0 31 0;
#X connect 48 0 49 0;
#X connect 50 0 51 0;
#X connect 52 0 57 0;
#X connect 53 0 67 1;
#X connect 54 0 68 0;
#X connect 55 0 9 0;
#X connect 55 0 8 0;
#X connect 56 0 29 0;
#X connect 56 0 38 0;
#X connect 57 0 22 0;
#X connect 58 0 73 0;
#X connect 58 1 73 1;
#X connect 58 2 73 2;
#X connect 60 0 61 0;
#X connect 61 0 59 0;
#X connect 62 0 57 0;
#X connect 63 0 31 0;
#X connect 63 0 18 0;
#X connect 64 0 14 0;
#X connect 65 0 56 0;
#X connect 67 0 78 0;
#X connect 68 0 58 0;
#X connect 69 0 55 0;
#X connect 70 0 55 0;
#X connect 71 0 55 0;
#X connect 72 0 55 0;
#X connect 74 0 73 3;
#X connect 76 0 75 2;
#X connect 77 0 75 0;
#X connect 77 1 75 1;
#X connect 78 0 7 0;
#X connect 78 1 77 0;
