#N canvas 432 67 701 866 10;
#X obj 189 71 inlet;
#X obj 189 106 unpack f f;
#X obj 189 217 mtof;
#X obj 193 567 *~;
#X obj 178 318 *~;
#X obj 211 286 receive~ f;
#X obj 225 765 outlet~;
#X obj 189 262 sig~;
#X obj 164 413 blsaw;
#X obj 349 317 sel 0;
#X obj 384 448 vline~;
#X obj 225 669 moog~;
#X msg 139 622 reset;
#X text 450 620 Q (1-4);
#X obj 50 269 receive~ offset;
#X obj 93 369 *~;
#X obj 337 621 r~ resonance;
#X obj 253 555 r~ cutoff;
#X obj 102 428 blsaw;
#X obj 347 494 *~;
#X msg 351 390 0 500;
#X obj 225 716 *~ 0.75;
#X obj 102 450 *~ 0.707;
#X obj 165 434 *~ 0.707;
#X obj 245 618 *~;
#X obj 409 298 / 127;
#X obj 409 320 sqrt;
#X msg 421 401 \$1 10 \, 0.8 240 10;
#X obj 185 363 +~;
#X obj 109 400 +~;
#X obj 446 112 *~;
#X obj 435 161 +~ 0.5;
#X obj 435 183 wrap~;
#X obj 435 205 cos~;
#X obj 447 90 sig~ 0;
#X obj 436 139 osc~ 0;
#X connect 0 0 1 0;
#X connect 1 0 2 0;
#X connect 1 1 9 0;
#X connect 2 0 7 0;
#X connect 3 0 11 0;
#X connect 4 0 15 0;
#X connect 4 0 28 0;
#X connect 5 0 4 1;
#X connect 7 0 4 0;
#X connect 8 0 23 0;
#X connect 9 0 20 0;
#X connect 9 1 25 0;
#X connect 10 0 19 1;
#X connect 10 0 19 0;
#X connect 11 0 21 0;
#X connect 12 0 11 0;
#X connect 14 0 15 1;
#X connect 15 0 29 0;
#X connect 16 0 11 2;
#X connect 17 0 24 0;
#X connect 18 0 22 0;
#X connect 19 0 3 1;
#X connect 19 0 24 1;
#X connect 20 0 10 0;
#X connect 21 0 6 0;
#X connect 22 0 3 0;
#X connect 23 0 3 0;
#X connect 24 0 11 1;
#X connect 25 0 26 0;
#X connect 26 0 27 0;
#X connect 27 0 10 0;
#X connect 28 0 8 0;
#X connect 29 0 18 0;
#X connect 30 0 35 0;
#X connect 31 0 32 0;
#X connect 32 0 33 0;
#X connect 34 0 30 0;
#X connect 35 0 31 0;
