#N canvas 152 50 1582 747 10;
#X declare -path seq3;
#X obj 29 87 bng 15 250 50 0 empty empty empty 17 7 0 10 -262144 -1
-1;
#X obj 429 87 bng 15 250 50 0 empty empty empty 17 7 0 10 -262144 -1
-1;
#X obj 226 86 bng 15 250 50 0 empty empty empty 17 7 0 10 -262144 -1
-1;
#X obj 621 89 bng 15 250 50 0 empty empty empty 17 7 0 10 -262144 -1
-1;
#X obj 819 88 bng 15 250 50 0 empty empty empty 17 7 0 10 -262144 -1
-1;
#X obj 1005 85 bng 15 250 50 0 empty empty empty 17 7 0 10 -262144
-1 -1;
#X obj 428 137 bng 15 250 50 0 empty empty empty 17 7 0 10 -262144
-1 -1;
#X obj 225 135 bng 15 250 50 0 empty empty empty 17 7 0 10 -262144
-1 -1;
#X obj 621 137 bng 15 250 50 0 empty empty empty 17 7 0 10 -262144
-1 -1;
#X obj 817 134 bng 15 250 50 0 empty empty empty 17 7 0 10 -262144
-1 -1;
#X obj 1007 133 bng 15 250 50 0 empty empty empty 17 7 0 10 -262144
-1 -1;
#X obj 430 185 bng 15 250 50 0 empty empty empty 17 7 0 10 -262144
-1 -1;
#X obj 225 188 bng 15 250 50 0 empty empty empty 17 7 0 10 -262144
-1 -1;
#X obj 621 186 bng 15 250 50 0 empty empty empty 17 7 0 10 -262144
-1 -1;
#X obj 817 187 bng 15 250 50 0 empty empty empty 17 7 0 10 -262144
-1 -1;
#X obj 1010 185 bng 15 250 50 0 empty empty empty 17 7 0 10 -262144
-1 -1;
#X obj 29 135 bng 15 250 50 0 empty empty empty 17 7 0 10 -262144 -1
-1;
#X obj 29 185 bng 15 250 50 0 empty empty empty 17 7 0 10 -262144 -1
-1;
#X obj 431 235 bng 15 250 50 0 empty empty empty 17 7 0 10 -262144
-1 -1;
#X obj 226 236 bng 15 250 50 0 empty empty empty 17 7 0 10 -262144
-1 -1;
#X obj 622 237 bng 15 250 50 0 empty empty empty 17 7 0 10 -262144
-1 -1;
#X obj 820 236 bng 15 250 50 0 empty empty empty 17 7 0 10 -262144
-1 -1;
#X obj 1010 239 bng 15 250 50 0 empty empty empty 17 7 0 10 -262144
-1 -1;
#X obj 29 234 bng 15 250 50 0 empty empty empty 17 7 0 10 -262144 -1
-1;
#X text 29 41 Sampler Manager;
#X text 292 10 -Each subpatch represents a key on the organelle. -Pass
the sound file name as an argument to sampler-voice \, this replaces
\$1 inside sampler-voice. -The sound files must be in the folder with
this patch.;
#X obj 724 533 *~ 1;
#X obj 884 364 r knob2;
#X obj 637 649 throw~ outL;
#X obj 535 649 throw~ outR;
#X obj 683 488 rev3~ 100 90 3000 20;
#X obj 906 423 + 80;
#X obj 455 378 r knob3;
#X obj 456 409 sig~;
#X obj 456 431 lop~ 5;
#X obj 554 460 -~ 1;
#X obj 534 609 *~;
#X obj 615 545 *~;
#X obj 554 482 abs~;
#X obj 356 430 * 100;
#X obj 356 452 i;
#X obj 356 522 s screenLine3;
#X msg 356 500 3: Wet / Dry \$1 %;
#X obj 884 503 * 100;
#X obj 884 525 i;
#X obj 884 595 s screenLine2;
#X msg 884 573 2: Reverb Amount \$1 %;
#X obj 709 371 catch~ samp_voice_out;
#X obj 710 404 *~ 1;
#X obj 906 401 * 15;
#X text 688 327 get the output from voices and feed it into rev3~ \,
a fun reverb included with Pd;
#X obj 1345 479 i;
#X obj 1279 379 r knob4;
#X obj 1345 450 * 100;
#X obj 1345 423 moses 0.98;
#X obj 1418 447 change;
#X msg 1418 469 bang;
#X obj 1345 557 s screenLine4;
#X obj 1418 512 s screenLine4;
#X msg 1418 490 4: Decay Off;
#X msg 1345 535 4: Decay \$1 %;
#X obj 884 548 change -1;
#X obj 1345 501 change -1;
#X obj 356 474 change -1;
#X obj 1296 137 bang;
#X obj 1329 209 - 0.5;
#X obj 1329 231 * 200;
#X obj 1329 259 i;
#X obj 1250 224 - 0.5;
#X obj 1250 246 * 200;
#X obj 1250 274 i;
#X obj 1250 302 abs;
#X obj 1268 68 detent 0.075;
#X obj 1268 34 r knob1;
#X obj 1318 111 s knob1-detent;
#X msg 1296 164 \; screenLine1 1: Samp Speed ORIG \;;
#X msg 1329 287 \; screenLine1 1: Samp Speed +\$1 % \;;
#X msg 1250 327 \; screenLine1 1: Samp Speed -\$1 % \;;
#X obj 162 702 s the-notes;
#X obj 162 611 r notes;
#X obj 222 634 r aux;
#X obj 32 552 declare -path seq3;
#X obj 267 634 r fs;
#N canvas 29 50 1563 812 metro-is-here 0;
#X obj 469 477 i;
#X obj 676 385 i;
#X obj 572 436 i;
#X obj 469 344 cg-metro 1, f 30;
#X obj 469 512 cg-print-line5, f 42;
#X obj 722 425 r seq3-1-actions;
#X obj 380 251 loadbang;
#X msg 380 273 120;
#X connect 0 0 4 0;
#X connect 1 0 4 2;
#X connect 2 0 4 1;
#X connect 3 0 0 0;
#X connect 3 1 2 0;
#X connect 3 2 1 0;
#X connect 5 0 4 3;
#X connect 6 0 7 0;
#X connect 7 0 3 0;
#X restore 31 513 pd metro-is-here;
#X obj 1105 643 s midiInGate;
#X obj 1105 575 loadbang;
#X msg 1105 608 0;
#X obj 1010 262 sampler-voice 24.wav 23;
#X obj 162 673 cg-seq3 1 1;
#X obj 1330 33 r seq3-1-k1;
#X obj 350 363 r seq3-1-k3;
#X obj 950 357 r seq3-1-k2;
#X obj 1348 375 r seq3-1-k4;
#X obj 29 260 sampler-voice 19.wav 18;
#X obj 622 260 sampler-voice 22.wav 21;
#X obj 29 110 sampler-voice 1.wav 0;
#X obj 819 109 sampler-voice 5.wav 4;
#X obj 226 110 sampler-voice 2.wav 1;
#X obj 429 110 sampler-voice 3.wav 2;
#X obj 621 109 sampler-voice 4.wav 3;
#X obj 1005 108 sampler-voice 6.wav 5;
#X obj 29 158 sampler-voice 7.wav 6;
#X obj 225 157 sampler-voice 8.wav 7;
#X obj 428 159 sampler-voice 9.wav 8;
#X obj 621 160 sampler-voice 10.wav 9;
#X obj 817 158 sampler-voice 11.wav 10;
#X obj 1007 157 sampler-voice 12.wav 11;
#X obj 29 208 sampler-voice 13.wav 12;
#X obj 225 209 sampler-voice 14.wav 13;
#X obj 430 208 sampler-voice 15.wav 14;
#X obj 621 209 sampler-voice 16.wav 15;
#X obj 817 210 sampler-voice 17.wav 16;
#X obj 1010 211 sampler-voice 18.wav 17;
#X obj 226 259 sampler-voice 20.wav 19;
#X obj 431 262 sampler-voice 21.wav 20;
#X obj 820 260 sampler-voice 23.wav 22;
#X obj 1238 440 s decay-local;
#X connect 0 0 95 0;
#X connect 1 0 98 0;
#X connect 2 0 97 0;
#X connect 3 0 99 0;
#X connect 4 0 96 0;
#X connect 5 0 100 0;
#X connect 6 0 103 0;
#X connect 7 0 102 0;
#X connect 8 0 104 0;
#X connect 9 0 105 0;
#X connect 10 0 106 0;
#X connect 11 0 109 0;
#X connect 12 0 108 0;
#X connect 13 0 110 0;
#X connect 14 0 111 0;
#X connect 15 0 112 0;
#X connect 16 0 101 0;
#X connect 17 0 107 0;
#X connect 18 0 114 0;
#X connect 19 0 113 0;
#X connect 20 0 94 0;
#X connect 21 0 115 0;
#X connect 22 0 87 0;
#X connect 23 0 93 0;
#X connect 26 0 36 1;
#X connect 27 0 43 0;
#X connect 27 0 49 0;
#X connect 30 0 26 0;
#X connect 30 1 26 0;
#X connect 30 2 26 0;
#X connect 30 3 26 0;
#X connect 31 0 30 2;
#X connect 32 0 33 0;
#X connect 32 0 39 0;
#X connect 33 0 34 0;
#X connect 34 0 35 0;
#X connect 34 0 36 0;
#X connect 35 0 38 0;
#X connect 36 0 28 0;
#X connect 36 0 29 0;
#X connect 37 0 28 0;
#X connect 37 0 29 0;
#X connect 38 0 37 0;
#X connect 39 0 40 0;
#X connect 40 0 63 0;
#X connect 42 0 41 0;
#X connect 43 0 44 0;
#X connect 44 0 61 0;
#X connect 46 0 45 0;
#X connect 47 0 48 0;
#X connect 48 0 30 0;
#X connect 48 0 30 1;
#X connect 48 0 37 1;
#X connect 49 0 31 0;
#X connect 51 0 62 0;
#X connect 52 0 54 0;
#X connect 52 0 116 0;
#X connect 53 0 51 0;
#X connect 54 0 53 0;
#X connect 54 1 55 0;
#X connect 55 0 56 0;
#X connect 56 0 59 0;
#X connect 59 0 58 0;
#X connect 60 0 57 0;
#X connect 61 0 46 0;
#X connect 62 0 60 0;
#X connect 63 0 42 0;
#X connect 64 0 75 0;
#X connect 65 0 66 0;
#X connect 66 0 67 0;
#X connect 67 0 76 0;
#X connect 68 0 69 0;
#X connect 69 0 70 0;
#X connect 70 0 71 0;
#X connect 71 0 77 0;
#X connect 72 0 68 0;
#X connect 72 0 74 0;
#X connect 72 1 64 0;
#X connect 72 1 74 0;
#X connect 72 2 65 0;
#X connect 72 2 74 0;
#X connect 73 0 72 0;
#X connect 79 0 88 0;
#X connect 80 0 88 1;
#X connect 82 0 88 1;
#X connect 85 0 86 0;
#X connect 86 0 84 0;
#X connect 88 0 78 0;
#X connect 89 0 72 0;
#X connect 90 0 39 0;
#X connect 90 0 33 0;
#X connect 91 0 43 0;
#X connect 91 0 49 0;
#X connect 92 0 54 0;
#X connect 92 0 116 0;
